<svg width="28" height="28" viewBox="0 0 28 28" fill="none" xmlns="http://www.w3.org/2000/svg">
<rect width="28" height="28" rx="13" fill="#3F6DAA"/>
<g clip-path="url(#clip0_446_445)">
<path d="M14.0713 2.07086L14.0625 25.9715L12.8138 20.908L10.9843 23.0868L10.8391 19.9566L4.47954 23.7927L8.08041 17.8085L5.64111 17.9005L7.90617 15.5069L1.95312 13.9111L7.90617 12.5915L5.75727 10.2592H8.31272L4.42146 4.27499L10.8972 8.20307L10.8391 4.98081L12.988 7.19036L14.0713 2.07086Z" fill="#FAFAFA"/>
<path d="M14.5373 2.07571L15.7911 3.58865L15.1821 4.19559V5.33123L16.2925 4.19559L16.7582 4.72556L15.1821 6.39117V7.07256L17.0448 5.10411L17.5462 5.67193L15.1821 8.1325V8.92745L17.9045 6.12619L18.4418 6.76972L15.7194 9.68455L18.0836 10.7823L18.9791 7.3754H19.8746L18.9678 10.7823L19.7313 10.3281L20.4477 7.3754H21.1642L20.6268 9.79811L21.5224 9.26814L21.8448 7.3754H22.4895L22.2746 8.81388L23.2776 8.20821L23.4567 7.3754L26.1433 7.3754L24.603 9.38171L23.6716 8.92745L22.6328 9.57098L23.9582 10.2145L23.5642 10.7445L21.988 9.94953L21.0209 10.5174L23.0627 11.4259L22.597 12.0315L20.2686 10.9716L19.4806 11.4259L22.0955 12.6372L21.4149 13.5457L18.9678 12.4101V15.5899L21.4128 14.4543L22.0921 15.3628L19.4823 16.5741L20.2688 17.0284L22.5926 15.9685L23.0574 16.5741L21.0196 17.4827L21.9849 18.0505L23.5579 17.2555L23.9512 17.7855L22.6284 18.429L23.6652 19.0726L24.5947 18.6183L26.132 20.6246H23.4507L23.2719 19.7918L22.2709 19.1861L22.4854 20.6246H21.8419L21.5201 18.7319L20.6263 18.2019L21.1626 20.6246H20.4475L19.7325 17.6719L18.9678 17.2177L19.8755 20.6246H18.9817L18.0945 17.2177L15.7283 18.3155L18.4455 21.2303L17.9092 21.8738L15.1921 19.0726V19.8675L17.5517 22.3281L17.0511 22.8959L15.1921 20.9274V21.6088L16.7651 23.2745L16.3004 23.8044L15.1921 22.6688V23.8044L15.7998 24.4101L14.5485 25.9243L14.5485 17.6341L18.0945 15.9685V12.0315L14.5373 10.3659L14.5373 2.07571Z" fill="#FAFAFA"/>
<path d="M14.4657 12.7593L16.0385 11.6909C16.2567 11.6909 16.3977 11.8465 16.3978 11.998L16.3977 13.1267L17.4747 13.5164C17.8329 13.6679 17.8329 13.8501 17.8329 14.0843C17.8329 14.3184 17.8329 14.4207 17.4747 14.5721L16.3978 14.9506L16.3977 16.0863C16.4005 16.2441 16.2534 16.3891 16.0385 16.3891L14.4657 15.632V14.9506L15.7524 15.632V14.345L16.7559 14.1935C16.9732 14.1313 16.9732 13.9707 16.7559 13.8879L15.7553 13.7436V12.4565L14.4657 13.365V12.7593Z" fill="#FAFAFA"/>
</g>
<defs>
<clipPath id="clip0_446_445">
<rect width="24" height="24" fill="white" transform="translate(2 2)"/>
</clipPath>
</defs>
</svg>
